<svg xmlns="http://www.w3.org/2000/svg" viewBox="0 0 16 16">
  <path fill="#383838" fill-rule="evenodd" d="M8 .197A8 8 0 005.47 15.788c.4.074.546-.173.546-.385 0-.19-.007-.693-.01-1.36-2.226.483-2.695-1.073-2.695-1.073-.364-.924-.889-1.17-.889-1.17-.726-.496.055-.487.055-.487.803.057 1.225.825 1.225.825.714 1.222 1.873.87 2.329.664.073-.516.28-.869.508-1.069-1.777-.202-3.644-.888-3.644-3.954 0-.873.311-1.587.823-2.146-.082-.203-.357-1.016.079-2.118 0 0 .671-.215 2.2.82A7.662 7.662 0 018 4.067a7.67 7.67 0 012.003.27c1.527-1.036 2.198-.82 2.198-.82.436 1.1.162 1.914.08 2.117.513.559.822 1.273.822 2.146 0 3.074-1.87 3.75-3.652 3.948.286.247.542.735.542 1.482 0 1.069-.01 1.932-.01 2.194 0 .214.145.463.55.385A8 8 0 008 .198"/>
</svg>
