<svg xmlns="http://www.w3.org/2000/svg" viewBox="0 0 194 31">
  <g fill="none" fill-rule="nonzero">
    <path fill="#39ADB7" d="M5.406 24.14a.8.8 0 00.612-.255.845.845 0 00.238-.595v-8.126l6.46 8.296c.09.159.25.312.476.459.227.147.521.221.884.221h5.338a.72.72 0 00.527-.221.683.683 0 00.221-.493c0-.181-.045-.317-.136-.408L11.458 11.73 19.38 1.462c.09-.09.136-.227.136-.408a.683.683 0 00-.221-.493.683.683 0 00-.493-.221H13.6c-.635 0-1.077.227-1.326.68L6.256 8.636V1.224c0-.25-.08-.459-.238-.629A.8.8 0 005.406.34H.85a.8.8 0 00-.612.255.887.887 0 00-.238.629V23.29c0 .227.085.425.255.595.17.17.368.255.595.255h4.556zm22.282.34c1.224 0 2.278-.221 3.162-.663.884-.442 1.575-1.014 2.074-1.717v1.19c0 .227.085.425.255.595.17.17.368.255.595.255h4.182a.8.8 0 00.612-.255.845.845 0 00.238-.595V12.988c0-2.108-.68-3.78-2.04-5.015-1.36-1.235-3.445-1.853-6.256-1.853-1.768 0-3.253.272-4.454.816-1.201.544-2.097 1.196-2.686 1.955-.59.76-.895 1.445-.918 2.057-.023.204.04.38.187.527a.76.76 0 00.561.221h3.944c.136 0 .25-.08.34-.238.227-.113.487-.295.782-.544a6.13 6.13 0 011.037-.714c.306-.159.686-.238 1.139-.238.816 0 1.394.193 1.734.578.34.385.51.997.51 1.836v.408l-4.216.646c-2.244.363-4.006 1.026-5.287 1.989-1.28.963-1.921 2.216-1.921 3.757 0 .975.278 1.87.833 2.686.555.816 1.326 1.456 2.312 1.921.986.465 2.08.697 3.281.697zm1.7-4.012c-.657 0-1.207-.159-1.649-.476-.442-.317-.663-.737-.663-1.258 0-.997.952-1.677 2.856-2.04l2.822-.476v.408c0 1.247-.312 2.199-.935 2.856s-1.434.986-2.431.986zm18.746 3.672a.8.8 0 00.612-.255.845.845 0 00.238-.595v-9.282c0-.997.26-1.774.782-2.329.521-.555 1.235-.833 2.142-.833.93 0 1.638.272 2.125.816.487.544.731 1.326.731 2.346v9.282a.8.8 0 00.255.612c.17.159.38.238.629.238h4.522a.8.8 0 00.612-.255.845.845 0 00.238-.595v-9.486c0-1.632-.289-3.026-.867-4.182-.578-1.156-1.371-2.029-2.38-2.618-1.009-.59-2.159-.884-3.451-.884-1.247 0-2.352.227-3.315.68-.963.453-1.751 1.054-2.363 1.802V7.31c0-.25-.08-.453-.238-.612a.828.828 0 00-.612-.238h-4.182a.845.845 0 00-.595.238.8.8 0 00-.255.612v15.98c0 .227.085.425.255.595.17.17.368.255.595.255h4.522zm22.18.34c1.224 0 2.278-.221 3.162-.663.884-.442 1.575-1.014 2.074-1.717v1.19c0 .227.085.425.255.595.17.17.368.255.595.255h4.182a.8.8 0 00.612-.255.845.845 0 00.238-.595V12.988c0-2.108-.68-3.78-2.04-5.015-1.36-1.235-3.445-1.853-6.256-1.853-1.768 0-3.253.272-4.454.816-1.201.544-2.097 1.196-2.686 1.955-.59.76-.895 1.445-.918 2.057-.023.204.04.38.187.527a.76.76 0 00.561.221h3.944c.136 0 .25-.08.34-.238.227-.113.487-.295.782-.544a6.13 6.13 0 011.037-.714c.306-.159.686-.238 1.139-.238.816 0 1.394.193 1.734.578.34.385.51.997.51 1.836v.408l-4.216.646c-2.244.363-4.006 1.026-5.287 1.989-1.28.963-1.921 2.216-1.921 3.757 0 .975.278 1.87.833 2.686.555.816 1.326 1.456 2.312 1.921.986.465 2.08.697 3.281.697zm1.7-4.012c-.657 0-1.207-.159-1.649-.476-.442-.317-.663-.737-.663-1.258 0-.997.952-1.677 2.856-2.04l2.822-.476v.408c0 1.247-.312 2.199-.935 2.856s-1.434.986-2.431.986z"/>
    <path fill="#18184C" d="M97.678 24.14c2.81 0 4.97-.635 6.477-1.904 1.507-1.27 2.261-3.049 2.261-5.338 0-1.179-.317-2.238-.952-3.179-.635-.94-1.417-1.615-2.346-2.023.703-.363 1.343-.94 1.921-1.734.578-.793.867-1.734.867-2.822 0-2.176-.703-3.853-2.108-5.032C102.393.929 100.251.34 97.372.34H86.866a.8.8 0 00-.612.255.887.887 0 00-.238.629V23.29c0 .227.085.425.255.595.17.17.368.255.595.255h10.812zm-1.02-14.382h-4.25V4.93h4.25c.861 0 1.513.221 1.955.663.442.442.663 1.014.663 1.717 0 .725-.227 1.315-.68 1.768-.453.453-1.1.68-1.938.68zm.306 9.792h-4.556v-5.338h4.556c.861 0 1.541.255 2.04.765.499.51.748 1.15.748 1.921 0 .748-.244 1.377-.731 1.887s-1.173.765-2.057.765zm19.46 4.93c2.584 0 4.465-.827 5.644-2.482v1.292a.8.8 0 00.255.612c.17.159.38.238.629.238h4.148a.8.8 0 00.612-.255.845.845 0 00.238-.595V7.31c0-.25-.08-.453-.238-.612a.828.828 0 00-.612-.238h-4.488c-.25 0-.459.08-.629.238a.8.8 0 00-.255.612v9.282c0 .997-.255 1.774-.765 2.329-.51.555-1.218.833-2.125.833-1.881 0-2.822-1.054-2.822-3.162V7.31a.8.8 0 00-.255-.612.887.887 0 00-.629-.238h-4.522a.845.845 0 00-.595.238.8.8 0 00-.255.612v9.486c0 2.448.612 4.34 1.836 5.678 1.224 1.337 2.833 2.006 4.828 2.006zm22.282 0c2.29 0 4.046-.748 5.27-2.244v1.054c0 .227.085.425.255.595.17.17.368.255.595.255h4.046c.25 0 .459-.08.629-.238a.8.8 0 00.255-.612V.85a.8.8 0 00-.255-.612.887.887 0 00-.629-.238h-4.386a.845.845 0 00-.595.238.8.8 0 00-.255.612v7.242c-1.247-1.315-2.89-1.972-4.93-1.972-2.176 0-3.899.708-5.168 2.125-1.27 1.417-1.95 3.36-2.04 5.831l-.034 1.224.034 1.19c.09 2.561.765 4.533 2.023 5.916s2.986 2.074 5.185 2.074zm1.972-4.726c-1.02 0-1.751-.3-2.193-.901-.442-.6-.697-1.434-.765-2.499l-.034-1.054.034-1.054c.068-1.065.323-1.898.765-2.499.442-.6 1.173-.901 2.193-.901.952 0 1.672.289 2.159.867.487.578.754 1.309.799 2.193.045.59.068 1.009.068 1.258 0 .227-.023.657-.068 1.292-.045.952-.306 1.74-.782 2.363-.476.623-1.201.935-2.176.935zm19.834 4.726c2.29 0 4.046-.748 5.27-2.244v1.054c0 .227.085.425.255.595.17.17.368.255.595.255h4.046c.25 0 .459-.08.629-.238a.8.8 0 00.255-.612V.85a.8.8 0 00-.255-.612.887.887 0 00-.629-.238h-4.386a.845.845 0 00-.595.238.8.8 0 00-.255.612v7.242c-1.247-1.315-2.89-1.972-4.93-1.972-2.176 0-3.899.708-5.168 2.125-1.27 1.417-1.95 3.36-2.04 5.831l-.034 1.224.034 1.19c.09 2.561.765 4.533 2.023 5.916s2.986 2.074 5.185 2.074zm1.972-4.726c-1.02 0-1.751-.3-2.193-.901-.442-.6-.697-1.434-.765-2.499l-.034-1.054.034-1.054c.068-1.065.323-1.898.765-2.499.442-.6 1.173-.901 2.193-.901.952 0 1.672.289 2.159.867.487.578.754 1.309.799 2.193.045.59.068 1.009.068 1.258 0 .227-.023.657-.068 1.292-.045.952-.306 1.74-.782 2.363-.476.623-1.201.935-2.176.935zm20.48 10.846c.476 0 .827-.238 1.054-.714l9.622-22.27a1.39 1.39 0 00.068-.442.683.683 0 00-.221-.493.72.72 0 00-.527-.221h-4.012c-.453 0-.793.238-1.02.714l-3.876 9.656-3.774-9.656c-.181-.476-.51-.714-.986-.714h-4.046a.72.72 0 00-.527.221 1.068 1.068 0 00-.289.561c0 .068.034.193.102.374l6.528 15.436-2.686 6.392a1.39 1.39 0 00-.068.442c0 .204.068.374.204.51a.692.692 0 00.51.204h3.944z"/>
  </g>
</svg>
